#!OML:ASF I:\Actors\actors\Patient Classification 2\Patient 1\Session 1\actor1.ASF
:FULLY-SPECIFIED
:DEGREES
381
root -0.8826 18.6844 5.76266 1.0974 -1.59964 -3.82274
lowerback 8.44224 0.40444 0.775541
upperback 2.08869 0.643127 1.33596
thorax -2.5771 0.316827 0.875763
lowerneck -5.56646 -2.67206 -3.43527
upperneck 25.0224 -4.34752 4.57742
head 8.88428 -1.91388 1.74089
rclavicle -1.87106e-014 -8.74653e-015
rhumerus -4.94013 28.1197 -36.4306
rradius 126.458
rwrist -58.9574
rhand 14.4306 -52.0228
rfingers 7.12502
rthumb 39.3154 -77.4518
lclavicle -1.87106e-014 -8.74653e-015
lhumerus -46.4553 2.28237 84.66
lradius 48.8564
lwrist -0.771023
lhand -7.09068 -26.8068
lfingers 7.12502
lthumb 18.7836 2.30624
rfemur 0 0 0
rtibia 0
rfoot 0 0
rtoes 0
lfemur -5.40592 -3.05225 -9.33076
ltibia 23.5691
lfoot -21.6868 11.9906
ltoes -56.8932
382
root -0.87483 18.685 5.76128 1.11394 -1.55044 -3.83765
lowerback 8.93844 0.408774 1.01286
upperback 1.75786 0.680361 1.21216
thorax -3.19087 0.332 0.606003
lowerneck -5.18358 -2.73607 -3.43409
upperneck 25.0032 -4.47377 4.69484
head 8.81465 -1.96782 1.77378
rclavicle 3.05631e-015 -3.18055e-015
rhumerus -5.56475 28.3319 -36.8032
rradius 126.415
rwrist -58.9773
rhand 14.4276 -52.0054
rfingers 7.12502
rthumb 39.3126 -77.4352
lclavicle 3.05631e-015 -3.18055e-015
lhumerus -46.927 1.98989 84.5481
lradius 48.8946
lwrist -0.733412
lhand -7.05818 -26.8862
lfingers 7.12502
lthumb 18.8149 2.22391
rfemur 0 0 0
rtibia 0
rfoot 0 0
rtoes 0
lfemur -5.45193 -3.08666 -9.34088
ltibia 23.5817
lfoot -21.6404 12.0174
ltoes -56.9367
383
root -0.866322 18.6859 5.76109 1.10499 -1.56985 -3.82957
lowerback 9.13689 0.405577 1.07226
upperback 1.66402 0.685341 1.16595
thorax -3.39712 0.33295 0.522532
lowerneck -5.0631 -2.74667 -3.3419
upperneck 24.9375 -4.48764 4.63632
head 8.7667 -1.9742 1.738
rclavicle -4.19933e-015 5.26779e-015
rhumerus -5.72111 28.3887 -36.917
rradius 126.342
rwrist -58.9558
rhand 14.6426 -52.0989
rfingers 7.12502
rthumb 39.5151 -77.4694
lclavicle -4.19933e-015 5.26779e-015
lhumerus -47.0864 1.93402 84.4659
lradius 48.9172
lwrist -0.732372
lhand -7.0177 -26.8586
lfingers 7.12502
lthumb 18.8538 2.24773
rfemur 0 0 0
rtibia 0
rfoot 0 0
rtoes 0
lfemur -5.44045 -3.16168 -9.39904
ltibia 23.5885
lfoot -21.6645 12.1499
ltoes -57.007
384
root -0.857851 18.6857 5.76156 1.10044 -1.6213 -3.79955
lowerback 9.03881 0.412338 0.97226
upperback 1.77672 0.681976 1.19209
thorax -3.22729 0.332976 0.607254
lowerneck -5.11642 -2.73424 -3.27652
upperneck 24.7427 -4.44341 4.52721
head 8.7033 -1.95888 1.69197
rclavicle 8.67198e-015 -2.20651e-014
rhumerus -5.53857 28.2708 -36.8167
rradius 126.261
rwrist -59.0083
rhand 14.761 -52.1831
rfingers 7.12502
rthumb 39.6266 -77.5207
lclavicle 8.67198e-015 -2.20651e-014
lhumerus -46.9435 1.96722 84.4745
lradius 48.9322
lwrist -0.66769
lhand -7.02479 -26.7836
lfingers 7.12502
lthumb 18.847 2.32339
rfemur 0 0 0
rtibia 0
rfoot 0 0
rtoes 0
lfemur -5.41863 -3.25405 -9.48911
ltibia 23.5924
lfoot -21.7489 12.2952
ltoes -57.0166
385
root -0.849985 18.6857 5.7611 1.1516 -1.63554 -3.76947
lowerback 8.65181 0.391351 0.703121
upperback 2.03614 0.62324 1.32539
thorax -2.7481 0.307098 0.906284
lowerneck -5.23355 -2.6916 -3.3148
upperneck 24.3696 -4.32809 4.39501
head 8.58933 -1.92208 1.66072
rclavicle 4.94477e-015 2.5345e-014
rhumerus -5.02075 28.0569 -36.4836
rradius 126.199
rwrist -59.1328
rhand 14.5702 -52.3113
rfingers 7.12502
rthumb 39.447 -77.7018
lclavicle 4.94477e-015 2.5345e-014
lhumerus -46.5582 2.25496 84.568
lradius 48.8976
lwrist -0.684681
lhand -7.12926 -26.7693
lfingers 7.12502
lthumb 18.7465 2.34743
rfemur 0 0 0
rtibia 0
rfoot 0 0
rtoes 0
lfemur -5.47485 -3.25132 -9.55405
ltibia 23.592
lfoot -21.7817 12.3191
ltoes -56.9632
386
root -0.840847 18.686 5.76073 1.2073 -1.65226 -3.76002
lowerback 8.68763 0.396257 0.71359
upperback 2.0022 0.631588 1.31926
thorax -2.803 0.311132 0.892854
lowerneck -5.08126 -2.68194 -3.33924
upperneck 24.1039 -4.30123 4.38773
head 8.46928 -1.91667 1.66558
rclavicle 3.3048e-015 -1.27222e-014
rhumerus -5.07179 28.0396 -36.4902
rradius 126.237
rwrist -59.2036
rhand 14.3017 -52.4476
rfingers 7.12502
rthumb 39.1939 -77.9118
lclavicle 3.3048e-015 -1.27222e-014
lhumerus -46.6038 2.25079 84.5471
lradius 48.9152
lwrist -0.707036
lhand -7.28319 -26.6472
lfingers 7.12502
lthumb 18.5984 2.48367
rfemur 0 0 0
rtibia 0
rfoot 0 0
rtoes 0
lfemur -5.54278 -3.23297 -9.59797
ltibia 23.5995
lfoot -21.7809 12.3511
ltoes -56.9545
387
root -0.830076 18.6854 5.76027 1.21678 -1.6803 -3.76776
lowerback 9.13521 0.428266 0.970625
upperback 1.73441 0.704998 1.18263
thorax -3.32467 0.344049 0.594879
lowerneck -4.7103 -2.70016 -3.28169
upperneck 23.9325 -4.35723 4.48471
head 8.34571 -1.93594 1.68762
rclavicle -1.2424e-015 -6.95746e-015
rhumerus -5.64321 28.1811 -36.8256
rradius 126.329
rwrist -59.2216
rhand 14.256 -52.4461
rfingers 7.12502
rthumb 39.1509 -77.9228
lclavicle -1.2424e-015 -6.95746e-015
lhumerus -47.0251 1.90186 84.4292
lradius 48.9817
lwrist -0.667245
lhand -7.28901 -26.5765
lfingers 7.12502
lthumb 18.5928 2.55494
rfemur 0 0 0
rtibia 0
rfoot 0 0
rtoes 0
lfemur -5.55953 -3.27797 -9.63777
ltibia 23.6174
lfoot -21.7991 12.4103
ltoes -56.9098
388
root -0.81918 18.685 5.75973 1.19401 -1.72253 -3.77783
lowerback 9.23042 0.431581 0.988456
upperback 1.75455 0.712687 1.1896
thorax -3.35656 0.347594 0.59054
lowerneck -4.57751 -2.68622 -3.20657
upperneck 23.5861 -4.32524 4.43977
head 8.19967 -1.92347 1.66275
rclavicle -1.963e-015 1.86858e-014
rhumerus -5.68179 28.1679 -36.8174
rradius 126.378
rwrist -59.2854
rhand 14.3828 -52.2879
rfingers 7.12502
rthumb 39.2703 -77.73
lclavicle -1.963e-015 1.86858e-014
lhumerus -47.046 1.87994 84.4088
lradius 48.9729
lwrist -0.668386
lhand -7.21742 -26.6452
lfingers 7.12502
lthumb 18.6617 2.4796
rfemur 0 0 0
rtibia 0
rfoot 0 0
rtoes 0
lfemur -5.52611 -3.26957 -9.66908
ltibia 23.6289
lfoot -21.8317 12.4095
ltoes -56.8751
389
root -0.808048 18.6854 5.75916 1.17103 -1.77438 -3.73953
lowerback 8.91882 0.403656 0.731901
upperback 2.07102 0.645727 1.32927
thorax -2.86002 0.317848 0.89017
lowerneck -4.72463 -2.65658 -3.18919
upperneck 23.0875 -4.21601 4.23189
head 8.04902 -1.89122 1.59574
rclavicle -9.69075e-016 -2.38542e-015
rhumerus -5.07838 27.9618 -36.355
rradius 126.401
rwrist -59.4887
rhand 14.494 -52.1811
rfingers 7.12502
rthumb 39.3752 -77.5926
lclavicle -9.69075e-016 -2.38542e-015
lhumerus -46.6103 2.2509 84.4793
lradius 48.8646
lwrist -0.773229
lhand -7.25166 -26.6682
lfingers 7.12502
lthumb 18.6288 2.45976
rfemur 0 0 0
rtibia 0
rfoot 0 0
rtoes 0
lfemur -5.48677 -3.20641 -9.74873
ltibia 23.6307
lfoot -21.8507 12.3961
ltoes -56.8889
390
root -0.797974 18.6861 5.7583 1.1902 -1.84678 -3.65112
lowerback 9.32234 0.444761 0.857497
upperback 1.85533 0.7172 1.18877
thorax -3.30464 0.351204 0.662485
lowerneck -4.43003 -2.70359 -3.13561
upperneck 22.8514 -4.28681 4.24254
head 7.91827 -1.92551 1.58739
rclavicle 1.78906e-015 -1.17283e-014
rhumerus -5.5237 28.0507 -36.5352
rradius 126.601
rwrist -59.7549
rhand 14.4794 -52.3425
rfingers 7.12502
rthumb 39.3614 -77.758
lclavicle 1.78906e-015 -1.17283e-014
lhumerus -46.927 1.98547 84.371
lradius 48.873
lwrist -0.790989
lhand -7.34132 -26.6358
lfingers 7.12502
lthumb 18.5425 2.50046
rfemur 0 0 0
rtibia 0
rfoot 0 0
rtoes 0
lfemur -5.49871 -3.1586 -9.88474
ltibia 23.6354
lfoot -21.8581 12.4064
ltoes -56.8177
391
root -0.788779 18.6872 5.75861 1.2315 -1.96254 -3.60463
lowerback 9.29145 0.456406 0.779876
upperback 1.8998 0.724017 1.19379
thorax -3.24247 0.355414 0.710911
lowerneck -4.28444 -2.6756 -3.09653
upperneck 22.4067 -4.22109 4.16499
head 7.73832 -1.90375 1.56118
rclavicle 4.37326e-015 -2.5842e-015
rhumerus -5.4218 27.9732 -36.468
rradius 126.748
rwrist -60.0397
rhand 14.4182 -52.5748
rfingers 7.12502
rthumb 39.3037 -78.0072
lclavicle 4.37326e-015 -2.5842e-015
lhumerus -46.8873 2.0367 84.3297
lradius 48.8704
lwrist -0.81944
lhand -7.31026 -26.6721
lfingers 7.12502
lthumb 18.5724 2.46133
rfemur 0 0 0
rtibia 0
rfoot 0 0
rtoes 0
lfemur -5.52128 -3.11351 -9.9786
ltibia 23.6406
lfoot -21.9037 12.4563
ltoes -56.7587
392
root -0.778024 18.6876 5.75923 1.29663 -2.05865 -3.6272
lowerback 8.88656 0.41653 0.573734
upperback 2.17068 0.646735 1.34898
thorax -2.74099 0.319212 0.999899
lowerneck -4.30325 -2.59498 -3.06487
upperneck 21.7933 -4.04421 3.95014
head 7.52647 -1.8402 1.49756
rclavicle 1.21507e-014 -2.16675e-014
rhumerus -4.75475 27.8162 -36.0861
rradius 126.788
rwrist -60.2003
rhand 14.4248 -52.5926
rfingers 7.12502
rthumb 39.3099 -78.0232
lclavicle 1.21507e-014 -2.16675e-014
lhumerus -46.5303 2.45197 84.352
lradius 48.8046
lwrist -0.913864
lhand -7.10948 -26.8288
lfingers 7.12502
lthumb 18.7655 2.28604
rfemur 0 0 0
rtibia 0
rfoot 0 0
rtoes 0
lfemur -5.56835 -3.07343 -9.99086
ltibia 23.6405
lfoot -21.982 12.4906
ltoes -56.7104
393
root -0.768256 18.6877 5.75843 1.37415 -2.09908 -3.6754
lowerback 9.32028 0.437164 0.912451
upperback 1.87072 0.712467 1.20153
thorax -3.287 0.34835 0.64543
lowerneck -3.90933 -2.61937 -2.94017
upperneck 21.4722 -4.09038 3.96066
head 7.34959 -1.85928 1.48101
rclavicle 1.9133e-015 -1.23246e-014
rhumerus -5.21668 27.9943 -36.3708
rradius 126.939
rwrist -60.3431
rhand 14.4243 -52.5603
rfingers 7.12502
rthumb 39.3095 -77.991
lclavicle 1.9133e-015 -1.23246e-014
lhumerus -46.9896 2.10557 84.2018
lradius 48.8561
lwrist -0.840479
lhand -6.97559 -26.9024
lfingers 7.12502
lthumb 18.8943 2.19992
rfemur 0 0 0
rtibia 0
rfoot 0 0
rtoes 0
lfemur -5.64959 -3.02397 -9.9536
ltibia 23.6429
lfoot -22.0295 12.4269
ltoes -56.5775
